<?xml version="1.0" encoding="UTF-8"?>
<svg id="a" data-name="Layer" xmlns="http://www.w3.org/2000/svg" viewBox="0 0 143.15 547.81">
  <g id="b" data-name="Group">
    <path d="m96.19,94.89c-8.09,17.53-41.55,16.38-50.33.11,11.65-3.11,17.41-17.03,9.51-26.81-2.15-2.52-2.92-6.21-4.39-9.55-1.92.97-3.03-.55-3.64-2.35-.52-3.13-7.51-16.83.2-13.61-3.45-8.65-7.2-17.23-1.81-26.48-.63.54-1.26,1.08-1.89,1.62-.21-.21-.42-.42-.63-.63,2.65-2.82,5.31-5.64,7.84-8.33-1.05.54-2.43,1.24-3.81,1.94,2.48-3.64,6.55-4.56,10.25-6.48-2.35.19-3.47.51-6.08,1.31,4.07-3.07,7.96-3.54,20.05-3.3-2.26-.76-4.52-1.51-6.9-2.31,6.68-.36,12.74,1.39,18.76,4.11-.99-1.01-1.89-1.66-3.18-2.42,5.14.21,4.99,4.67,7.84,7.22,4.35,2.03,8.11,4.54,9.02,9.89-1.34-1.63-2.6-3.15-3.85-4.66l-.87.42c3.41,4.06,4.93,8.58,3.9,14-.39-.41-.65-.69-.53-.56-.86,4.71-1.79,9.74-2.66,14.45,6.98-2.07.21,11.05-.3,14.12-.53,1.49-1.53,2.96-3.72,1.59-.52,6.32-3.99,10.53-6.93,15.64-.61,10.83,3.7,17.21,14.15,21.11,0-.02,0-.06,0-.06Z" style="stroke-width: 0px;"/>
    <path d="m138.83,530.45c-5.54-4.67-7.4-11.6-10.5-17.79,8.22,5.92,4.43-4.66-1.72-4.35,2.01-1.94,3.58-1.85,5.08,1.01.02-7.75-9.78,1.82-9.89-5.19-3.33-22.38,7.23-5.66,4.84-23.83-.31-1.92-1.93-3.73-2.18-5.6-.47-14.31-.83-28.62-1.24-42.94-1.6-9.4,2-20.11-3.03-28.52-3.67-5.06,3.1-10.66-2.26-16.16-.6-.82-.85-2.5-.42-3.37,2.61-5.22,1.35-10.14-.49-15.2-.91-5.15.89-10.74.06-15.99,1.51-26.63-.62-53.27-1.5-79.71,32.42-64.3,32.42-56.01,18.07-124.18-4.88,2.16-9.41,4.17-13.94,6.17-.1-.22-.2-.44-.3-.67,4.56-3.01,16.93-7.27,18.64-11.94-2.74-10.37-5.47-20.76-8.44-31.06-3.88-14.15-21.9-12.03-33.23-16.2v-.05c-7.56,21.14-41.09,17.25-51.15.59-11.95,3.71-29.39,1.71-32.32,17.01-7.46,37.48-14.56,25.96,9.87,40.54-.1.2-.2.39-.31.59-3.72-1.82-7.44-3.63-11.32-5.53C8.75,169.65-.02,190.31.81,212.1c5.18,22.94,10.35,46.13,20.03,67.68,1.91,18.23-4.69,36.93-3.96,55.31.47,8.85-.49,18.13.84,26.81,1.86,2.82,1.03,5.45.02,8.27-1.39,3.89-2.38,7.91-.04,11.81,2.44,5.42-6.02,9.15-.46,16.75.99,1.53.8,2.65-.11,4.05-4.25,5.09-2.28,11.35-1.77,17.28-.21,18.32-.53,36.63-.87,54.95-1.28,3.49-3.29,10.66-1.11,14.2,9.4,5.98,6.85-.82,7.22,12.74.79,11.3-8.51-4.1-10.41,12.36,1.9.39,3.25-.46,4.63-1.64-2.69,5.92-4.38,12.39-9.24,16.91-3.79,3.52-5.14,7.81-5.55,12.67-.99,8.45,20.18,5.03,25.48,4.1,12.88-3.3,27.58-5.6,40.92-5.7.03-.23.07-.46.1-.69-25.14-6.94-24.7,5.66-27.67-23.99-.64-3.24-.06-7.31-1.73-10.18-3.07-2.95-1.15-7.03-1.68-10.68-1.18-4.45,4.96-3.72,6.07-6.71,1.31-5.2-1.13-10.07-.72-15.06,3.05-21.25,2.1-43.31,7.8-64.04,1.24-9.23-4.57-4.63,2.22-16.35.9-3.47-2.07-6.34-.22-9.79,4.63-23.66,9.27-47.58,13.73-71.29,2.17-12.22,8.72-12.33,11.38.09,5.29,27.09,7.64,55.22,10.76,81.8,1.64,2.45,3.94,4.92,1.66,8.25-.21.3-.31.94-.13,1.21,2.94,4.57.45,10.05,2.49,14.76,2.78,9.63,2.4,19.98,3.95,29.88,1.48,13.02,4.75,25.87,3.63,39.13-.72,4.84,5.53,3.29,7.56,5.7.01,3.81,1.66,8.23.42,11.77-4.19,5.29-1.71,12.83-3.14,19.07-1.37,3.49-.11,11.61-4.49,12.16-10.62,2.22-14.89,3.14-25.51,4.7,16.62,2.95,27.96,1.7,44.7,6.13,5.91.98,22.14,3.17,25.54-2.07-.09-5.03.18-10.2-4.32-13.99Zm-121.15,9.35H5.66c-.01-.08-.03-.16-.04-.25h12.08c0,.08,0,.16-.01.25Zm-4.46-7.35c2.25-.92,4.08-.85,5.58,1.16-1.77-.37-3.54-.74-5.58-1.16Zm15.05-286.77c-.24.02-.49.05-.73.07-2.46-13.03-3.99-25.55-6.37-38.52-.49-16.5,4.26-32.29,7.58-48.29.25,0,.5.02.75.03,1.84,12.15,6.14,24.74,4.54,37.04-2.01,6.59-7.14,15.83,2.09,19.32-4.44,12.18-1.82,18.92-7.86,30.34Zm14.92-28.75c25.56,9.28,49.94-1.01,49.94-1.01-36.96,13.55-49.94,1.01-49.94,1.01Zm65.09,27.24c-3.37-10.6-4.75-18.2-8.17-28.96,6.11-2.78,7.33-10.12,3.94-15.53-2.73-5.42,5.95-10.83,7.37-16.89,2.31-7.68.95-16.43,3.83-23.87,4.54,10.26,5.73,27.79,6.41,27.79,1.12,5.4,2.3,10.94.53,16.35-3.9,11.94-4.38,21.94-12.98,40.98-.31.05-.63.09-.94.14Zm5.4,265.12h-1.4c1.15-4.37,1.77-4.98,5.1-4.81-2.34.87-4.89,1.43-3.7,4.81Zm14.68.4c1.32.97,2.63,1.95,3.95,2.92-.2.28-.39.56-.59.83-1.31-.92-2.62-1.83-3.93-2.75.19-.33.38-.67.57-1Zm-4.57,23.19c1.99-.23,3.99-.46,5.98-.69.03.23.05.46.08.69-1.99.23-3.99.46-5.98.69-.03-.23-.06-.46-.08-.69Zm2.29,6.9c4.04-.21,8.42-.44,12.8-.66,0,.22,0,.44,0,.66h-12.8Z" style="stroke-width: 0px;"/>
  </g>
</svg>