<?xml version="1.0" encoding="UTF-8"?>
<svg id="a" data-name="レイヤー 1" xmlns="http://www.w3.org/2000/svg" viewBox="0 0 278.79 290.73">
  <path d="m142.77,290.6c-9.12.08-33.87,1.99-66.05-12.29-2.1-.93-3.41-2.23-5.8-3.65-29.34-17.48-50.29-41.88-61.38-74.41C2.97,181.01-.52,161.24.06,140.9c1.04-36.59,13.23-68.91,37.89-96.21,15.43-17.08,34.52-28.67,56.04-36.43C109.97,2.51,126.42-.49,143.45.06c20.72.67,40.34,5.73,58.71,15.27,34.4,17.87,57.24,45.6,69.31,82.29,6.58,20.02,8.65,40.62,6.52,61.55-.67,6.58-6.3,14.99-4.02,26.33.23,1.16.46,1.97.52,2.2,4.16,16.17-42.34,102.09-131.71,102.9Zm111.8-92c-1.54-.83-2.95-1.71-4.46-2.37-1.45-.64-1.82-1.34-1.18-2.92,5.64-13.98,9.14-28.45,9.88-43.55.79-16.13-.96-31.91-6.19-47.24-.33-.96-.5-1.71.61-2.19,1.39-.61,1.37-1.61.81-2.8-2.73-5.84-5.01-11.94-8.24-17.49-15.27-26.3-37.4-44.59-65.97-54.88-25.75-9.28-51.81-9.34-77.74-.89-28.9,9.41-51.41,27.2-67.46,53.06-4.28,6.9-7.68,14.24-10.46,21.83,2.5,1.81,2.51,1.81,1.59,4.6-5.73,17.46-6.59,35.38-4.89,53.49,1.18,12.56,4.38,24.65,9.34,36.25.52,1.22.26,1.87-.86,2.44-1.7.85-3.36,1.79-5.02,2.68,20.06,45.54,58.34,73.16,108.21,76.58,46.42,3.18,97.41-20.23,122.03-76.59Z" style="fill: #666; stroke-width: 0px;"/>
  <path d="m254.57,198.6c-24.62,56.36-75.61,79.77-122.03,76.59-49.86-3.41-88.15-31.03-108.21-76.58,1.66-.89,3.32-1.83,5.02-2.68,1.12-.56,1.38-1.22.86-2.44-4.96-11.6-8.16-23.69-9.34-36.25-1.7-18.11-.84-36.04,4.89-53.49.92-2.79.9-2.79-1.59-4.6,2.78-7.6,6.18-14.93,10.46-21.83,16.05-25.86,38.56-43.65,67.46-53.06,25.94-8.44,51.99-8.39,77.74.89,28.57,10.3,50.7,28.58,65.97,54.88,3.22,5.55,5.51,11.65,8.24,17.49.55,1.19.57,2.19-.81,2.8-1.1.48-.93,1.24-.61,2.19,5.23,15.33,6.98,31.11,6.19,47.24-.74,15.1-4.23,29.57-9.88,43.55-.64,1.58-.27,2.28,1.18,2.92,1.51.66,2.92,1.54,4.46,2.37Zm-24.71-93.18c3.94-2.02,7.62-3.94,11.32-5.8,1.35-.68,1.63-1.43.97-2.89-3.95-8.73-8.79-16.92-14.97-24.25-26.74-31.68-60.62-46.08-102.02-41.14-19.86,2.37-37.86,9.93-53.79,22.19-14.86,11.43-26.5,25.47-34.4,42.53-1.09,2.36-1.05,2.36,1.23,3.53,3.68,1.88,7.36,3.79,11.05,5.69-10.77,26.26-10.43,52.16.69,78.04-1.27.6-2.39,1.13-3.54,1.67-.28-.49-.46-.76-.58-1.04-.84-1.93-1.74-3.85-2.5-5.81-4.95-12.72-6.56-25.97-6.08-39.53.07-1.87-.62-2.6-2.39-2.54-.51.02-1.02.02-1.54,0-1.6-.09-2.37.59-2.31,2.26.07,2.04,0,4.09.02,6.14.15,16.98,3.93,33.07,11.84,48.14.43.83.83,1.67,1.3,2.63-1.73.98-3.28,1.85-4.83,2.73-.96.54-1.31,1.1-.71,2.29,12.48,25.02,30.94,43.75,56.95,54.75,23.56,9.97,47.78,12.21,72.43,5.51,33.18-9.02,57.25-29.36,72.33-60.3.54-1.11.39-1.73-.68-2.32-1.49-.83-2.92-1.76-4.41-2.67.33-.65.56-1.1.79-1.55,8.99-17.38,13.03-35.83,12.06-55.38-.07-1.46-.68-2.11-2.05-2.2-.7-.04-1.41-.03-2.11-.02-1.41.02-2.1.7-2.06,2.15.06,1.92.06,3.84.07,5.76.11,13.54-2.35,26.57-7.78,39.01-.34.79-.76,1.54-1.16,2.34-1.33-.74-2.43-1.36-3.54-1.98,11.11-25.92,11.16-51.78.41-77.92Z" style="fill: #fff; stroke-width: 0px;"/>
  <path d="m229.86,105.42c10.75,26.14,10.7,52-.41,77.92,1.11.62,2.21,1.24,3.54,1.98.4-.8.82-1.56,1.16-2.34,5.43-12.44,7.89-25.47,7.78-39.01-.02-1.92-.02-3.84-.07-5.76-.04-1.45.65-2.13,2.06-2.15.7,0,1.41-.02,2.11.02,1.36.08,1.97.74,2.05,2.2.97,19.55-3.07,38-12.06,55.38-.23.45-.46.9-.79,1.55,1.49.91,2.92,1.85,4.41,2.67,1.07.59,1.22,1.21.68,2.32-15.07,30.94-39.15,51.28-72.33,60.3-24.66,6.7-48.87,4.46-72.43-5.51-26.01-11-44.46-29.73-56.95-54.75-.6-1.2-.25-1.75.71-2.29,1.55-.87,3.1-1.75,4.83-2.73-.47-.95-.86-1.8-1.3-2.63-7.91-15.07-11.69-31.16-11.84-48.14-.02-2.05.05-4.1-.02-6.14-.06-1.67.71-2.34,2.31-2.26.51.03,1.02.02,1.54,0,1.77-.06,2.46.67,2.39,2.54-.48,13.55,1.13,26.81,6.08,39.53.76,1.96,1.66,3.88,2.5,5.81.13.29.3.55.58,1.04,1.16-.55,2.28-1.07,3.54-1.67-11.12-25.88-11.46-51.78-.69-78.04-3.69-1.9-7.37-3.8-11.05-5.69-2.28-1.17-2.32-1.17-1.23-3.53,7.9-17.06,19.54-31.09,34.4-42.53,15.93-12.26,33.93-19.82,53.79-22.19,41.4-4.94,75.27,9.47,102.02,41.14,6.18,7.32,11.02,15.52,14.97,24.25.66,1.46.38,2.21-.97,2.89-3.71,1.86-7.38,3.78-11.32,5.8Zm-90.21,123.87c43.69-.02,83.97-33.7,84.28-85.04.28-45.35-37.64-84.33-83.57-84.52-45.49-.19-84.75,37.19-84.88,83.83-.14,51.89,39.31,85.35,84.17,85.73ZM48.81,96.7c20.53-34.84,50.57-54.55,90.94-54.77,40.73-.22,70.23,20.5,90.72,54.95.95-.64,1.85-1.24,2.75-1.85.1-.07.16-.19.39-.47-6.78-13.87-16.77-25.2-28.81-34.76-18.61-14.78-40.01-22.64-63.66-22.8-47.61-.32-82.65,30.15-95.54,57.59,1.1.72,2.21,1.44,3.22,2.1Zm180.92,99.08c-.41.6-.74,1.07-1.05,1.55-9.15,14.29-20.65,26.23-35.45,34.67-37.96,21.63-75.42,20.58-112.08-3.16-12.57-8.14-22.44-19.11-30.77-31.5-.41-.61-.87-1.19-1.33-1.82-1.15.87-2.1,1.59-3.03,2.3,13.22,24.91,48.37,53.52,92.7,54.01,42.3.47,78.22-24.95,94.51-53.76-1.1-.72-2.21-1.45-3.5-2.29Zm-5.74-96.73c-15.95-29.43-49.25-53.15-90.59-50.39-38.18,2.54-66.44,27.28-77.93,50.46.54.4,1.09.82,1.67,1.21.62.42,1.27.8,1.85,1.16,18.19-30.83,44.9-47.99,80.69-48.25,36.03-.26,62.25,17.71,80.73,48.01,1.11-.68,2.3-1.41,3.59-2.2Zm-5.2,92.83c-19.18,28.05-45.15,43.89-79.38,43.86-34.3-.03-60.24-15.97-79.24-44.19-1.12.73-2.28,1.48-3.66,2.38,6.48,10.79,14.82,19.68,24.73,27.1,16.17,12.1,34.41,18.58,54.61,19.44,43.1,1.83,74.76-25.19,86.53-46.66-1.17-.63-2.33-1.26-3.58-1.93Z" style="stroke-width: 0px;"/>
  <path d="m139.65,229.29c-44.86-.38-84.31-33.83-84.17-85.73.12-46.64,39.39-84.01,84.88-83.83,45.94.19,83.85,39.16,83.57,84.52-.31,51.34-40.6,85.02-84.28,85.04Zm74.06-84.47c.29-40.56-34.5-74.46-74.25-74.15-42.09.32-74.03,36-73.64,74.3.41,40.95,32.83,73.56,73.66,73.49,40.84-.07,74.18-32.32,74.24-73.64Z" style="fill: #fff; stroke-width: 0px;"/>
  <path d="m48.81,96.7c-1.01-.66-2.13-1.39-3.22-2.1,12.9-27.43,47.93-57.91,95.54-57.59,23.65.16,45.05,8.02,63.66,22.8,12.04,9.56,22.03,20.89,28.81,34.76-.23.28-.29.4-.39.47-.9.61-1.8,1.22-2.75,1.85-20.49-34.45-49.98-55.18-90.72-54.95-40.37.22-70.41,19.93-90.94,54.77Z" style="fill: #fff; stroke-width: 0px;"/>
  <path d="m229.74,195.78c1.28.84,2.39,1.57,3.5,2.29-16.28,28.81-52.21,54.23-94.51,53.76-44.33-.49-79.48-29.1-92.7-54.01.93-.71,1.89-1.43,3.03-2.3.47.64.92,1.21,1.33,1.82,8.32,12.39,18.19,23.36,30.77,31.5,36.66,23.74,74.12,24.78,112.08,3.16,14.8-8.43,26.3-20.38,35.45-34.67.31-.48.64-.95,1.05-1.55Z" style="fill: #fff; stroke-width: 0px;"/>
  <path d="m224,99.05c-1.29.79-2.48,1.52-3.59,2.2-18.48-30.3-44.7-48.26-80.73-48.01-35.79.26-62.49,17.41-80.69,48.25-.58-.36-1.23-.75-1.85-1.16-.58-.39-1.13-.82-1.67-1.21,11.49-23.18,39.75-47.92,77.93-50.46,41.34-2.75,74.65,20.96,90.59,50.39Z" style="fill: #fff; stroke-width: 0px;"/>
  <path d="m218.79,191.88c1.24.67,2.41,1.3,3.58,1.93-11.78,21.47-43.44,48.49-86.53,46.66-20.19-.86-38.43-7.34-54.61-19.44-9.91-7.41-18.25-16.3-24.73-27.1,1.38-.9,2.54-1.65,3.66-2.38,19,28.22,44.94,44.16,79.24,44.19,34.23.03,60.2-15.81,79.38-43.86Z" style="fill: #fff; stroke-width: 0px;"/>
  <path d="m213.7,144.82c-.06,41.32-33.4,73.56-74.24,73.64-40.82.07-73.24-32.54-73.66-73.49-.39-38.3,31.55-73.98,73.64-74.3,39.76-.3,74.54,33.59,74.25,74.15Zm-73.61-65.02c-32.3-.16-64.04,26.01-64.86,63.42-.75,34.3,25.76,65.12,63.73,65.7,35.54.54,64.94-28.39,65.31-63.44.4-37.84-31.82-65.74-64.18-65.68Z" style="stroke-width: 0px;"/>
  <path d="m140.1,79.8c32.37-.06,64.59,27.84,64.18,65.68-.37,35.05-29.77,63.98-65.31,63.44-37.97-.58-64.48-31.39-63.73-65.7.82-37.41,32.56-63.58,64.86-63.42Zm-14.32,6.46c.29.78.53,1.44.77,2.09.54,1.42.7,3.4,1.73,4.1,1.04.71,2.94.17,4.46.16,3.27-.02,6,2.07,6.54,5.04.56,3.09-1.1,5.87-4.3,7.04-1.08.4-2.21.63-3.32.93-13.89,3.78-23.53,12.16-28.09,26.02-.28.85-.59,1.69-.92,2.52-1.51,3.82-4.38,5.69-8.45,5.72-4.29.03-8.57,0-12.86,0-.61,0-1.21.06-1.79.09-1.37,25.89,12.98,50.05,36.93,59.83,27.74,11.32,55.94.82,71.57-19.86,15.77-20.84,15.66-50.32.14-70.81-17.19-22.71-44.45-28.32-62.42-22.87Z" style="fill: #fff; stroke-width: 0px;"/>
  <path d="m125.77,86.27c17.98-5.45,45.23.16,62.42,22.87,15.51,20.5,15.62,49.97-.14,70.81-15.64,20.67-43.83,31.18-71.57,19.86-23.95-9.77-38.3-33.94-36.93-59.83.58-.03,1.18-.09,1.79-.09,4.29,0,8.57.03,12.86,0,4.07-.02,6.93-1.9,8.45-5.72.33-.83.64-1.67.92-2.52,4.56-13.86,14.2-22.24,28.09-26.02,1.11-.3,2.24-.54,3.32-.93,3.2-1.17,4.86-3.95,4.3-7.04-.54-2.97-3.27-5.07-6.54-5.04-1.52.01-3.43.55-4.46-.16-1.03-.71-1.19-2.68-1.73-4.1-.25-.65-.48-1.31-.77-2.09Zm15.5,49.48c.05-6.52-5.22-11.94-11.68-12.02-6.81-.08-12.36,5.25-12.47,11.98-.1,6.64,5.29,12.13,11.98,12.19,6.8.07,12.11-5.24,12.17-12.15Zm35.59,17.31c.11-3.05-1.5-5.36-3.73-5.78-2.13-.4-4.07.98-5,3.54-.13.36-.25.73-.35,1.1-2.47,9.55-8.78,15.63-17.57,19.48-.7.31-1.44.56-2.09.95-1.77,1.06-2.6,3.14-2.05,4.94.59,1.94,2.46,3.31,4.52,3.17.94-.06,1.9-.31,2.79-.64,6.12-2.22,11.46-5.65,15.76-10.58,4.17-4.78,6.84-10.3,7.71-16.19Zm-83.51-8.57c.02-1.82-1.43-3.38-3.16-3.39-1.64-.02-3.06,1.46-3.1,3.23-.04,1.88,1.33,3.33,3.15,3.33,1.76,0,3.09-1.35,3.11-3.16Zm51.31-46.57c1.33-.16,2.19-.97,2.26-2.46.07-1.42-1.27-2.79-2.6-2.76-1.36.03-2.53,1.22-2.55,2.6-.02,1.42,1.25,2.63,2.88,2.62Z" style="stroke-width: 0px;"/>
  <path d="m141.27,135.75c-.06,6.91-5.37,12.22-12.17,12.15-6.69-.07-12.08-5.56-11.98-12.19.1-6.73,5.66-12.07,12.47-11.98,6.46.08,11.73,5.5,11.68,12.02Z" style="fill: #fff; stroke-width: 0px;"/>
  <path d="m176.86,153.06c-.87,5.89-3.54,11.41-7.71,16.19-4.3,4.93-9.64,8.36-15.76,10.58-.89.32-1.85.58-2.79.64-2.07.14-3.93-1.24-4.52-3.17-.55-1.8.28-3.88,2.05-4.94.65-.39,1.39-.65,2.09-.95,8.79-3.85,15.1-9.93,17.57-19.48.1-.37.22-.74.35-1.1.93-2.57,2.87-3.95,5-3.54,2.23.42,3.85,2.73,3.73,5.78Z" style="fill: #fff; stroke-width: 0px;"/>
  <path d="m93.34,144.49c-.02,1.81-1.35,3.16-3.11,3.16-1.82,0-3.2-1.45-3.15-3.33.04-1.77,1.46-3.25,3.1-3.23,1.73.02,3.18,1.57,3.16,3.39Z" style="fill: #fff; stroke-width: 0px;"/>
  <path d="m144.66,97.91c-1.63.02-2.91-1.2-2.88-2.62.02-1.39,1.19-2.58,2.55-2.6,1.33-.03,2.67,1.34,2.6,2.76-.07,1.49-.93,2.3-2.26,2.46Z" style="fill: #fff; stroke-width: 0px;"/>
</svg>